<svg width="162" height="23" viewBox="0 0 162 23" fill="none" xmlns="http://www.w3.org/2000/svg">
<path d="M2.05636e-05 0.407944H3.16802L10.992 13.0319H11.04V0.407944H13.896V17.5439H10.728L2.92802 4.94394H2.85602V17.5439H2.05636e-05V0.407944ZM26.9683 14.7839C26.9683 15.1199 27.0083 15.3599 27.0883 15.5039C27.1843 15.6479 27.3603 15.7199 27.6163 15.7199C27.6963 15.7199 27.7923 15.7199 27.9043 15.7199C28.0163 15.7199 28.1443 15.7039 28.2883 15.6719V17.5679C28.1923 17.5999 28.0643 17.6319 27.9043 17.6639C27.7603 17.7119 27.6083 17.7519 27.4483 17.7839C27.2883 17.8159 27.1283 17.8399 26.9683 17.8559C26.8083 17.8719 26.6723 17.8799 26.5603 17.8799C26.0003 17.8799 25.5363 17.7679 25.1683 17.5439C24.8003 17.3199 24.5603 16.9279 24.4483 16.3679C23.9043 16.8959 23.2323 17.2799 22.4323 17.5199C21.6483 17.7599 20.8883 17.8799 20.1523 17.8799C19.5923 17.8799 19.0563 17.7999 18.5443 17.6399C18.0323 17.4959 17.5763 17.2799 17.1763 16.9919C16.7923 16.6879 16.4803 16.3119 16.2403 15.8639C16.0163 15.3999 15.9043 14.8639 15.9043 14.2559C15.9043 13.4879 16.0403 12.8639 16.3123 12.3839C16.6003 11.9039 16.9683 11.5279 17.4163 11.2559C17.8803 10.9839 18.3923 10.7919 18.9523 10.6799C19.5283 10.5519 20.1043 10.4559 20.6803 10.3919C21.1763 10.2959 21.6483 10.2319 22.0963 10.1999C22.5443 10.1519 22.9363 10.0799 23.2723 9.98394C23.6243 9.88794 23.8963 9.74395 24.0883 9.55195C24.2963 9.34395 24.4003 9.03994 24.4003 8.63994C24.4003 8.28795 24.3123 7.99995 24.1363 7.77595C23.9763 7.55194 23.7683 7.38394 23.5123 7.27194C23.2723 7.14394 23.0003 7.06394 22.6963 7.03194C22.3923 6.98394 22.1043 6.95994 21.8323 6.95994C21.0643 6.95994 20.4323 7.11994 19.9363 7.43994C19.4403 7.75994 19.1603 8.25594 19.0963 8.92794H16.3603C16.4083 8.12794 16.6003 7.46394 16.9363 6.93594C17.2723 6.40794 17.6963 5.98394 18.2083 5.66394C18.7363 5.34394 19.3283 5.11994 19.9843 4.99195C20.6403 4.86395 21.3123 4.79994 22.0003 4.79994C22.6083 4.79994 23.2083 4.86395 23.8003 4.99195C24.3923 5.11994 24.9203 5.32794 25.3843 5.61595C25.8643 5.90394 26.2483 6.27994 26.5363 6.74394C26.8243 7.19194 26.9683 7.74394 26.9683 8.39995V14.7839ZM24.2323 11.3279C23.8163 11.5999 23.3043 11.7679 22.6963 11.8319C22.0883 11.8799 21.4803 11.9599 20.8723 12.0719C20.5843 12.1199 20.3043 12.1919 20.0323 12.2879C19.7603 12.3679 19.5203 12.4879 19.3123 12.6479C19.1043 12.7919 18.9363 12.9919 18.8083 13.2479C18.6963 13.4879 18.6403 13.7839 18.6403 14.1359C18.6403 14.4399 18.7283 14.6959 18.9043 14.9039C19.0803 15.1119 19.2883 15.2799 19.5283 15.4079C19.7843 15.5199 20.0563 15.5999 20.3443 15.6479C20.6483 15.6959 20.9203 15.7199 21.1603 15.7199C21.4643 15.7199 21.7923 15.6799 22.1443 15.5999C22.4963 15.5199 22.8243 15.3839 23.1283 15.1919C23.4483 14.9999 23.7123 14.7599 23.9203 14.4719C24.1283 14.1679 24.2323 13.7999 24.2323 13.3679V11.3279ZM29.4323 5.13594H32.0243V6.95994L32.0723 7.00795C32.4883 6.31994 33.0323 5.78394 33.7043 5.39994C34.3763 4.99994 35.1203 4.79994 35.9363 4.79994C37.2963 4.79994 38.3683 5.15194 39.1523 5.85594C39.9363 6.55994 40.3283 7.61594 40.3283 9.02394V17.5439H37.5923V9.74394C37.5603 8.76795 37.3523 8.06395 36.9683 7.63194C36.5843 7.18394 35.9843 6.95994 35.1683 6.95994C34.7043 6.95994 34.2883 7.04795 33.9203 7.22395C33.5523 7.38394 33.2403 7.61594 32.9843 7.91994C32.7283 8.20794 32.5283 8.55194 32.3843 8.95195C32.2403 9.35195 32.1683 9.77595 32.1683 10.2239V17.5439H29.4323V5.13594ZM42.7335 5.13594H45.3255V6.95994L45.3735 7.00795C45.7895 6.31994 46.3335 5.78394 47.0055 5.39994C47.6775 4.99994 48.4215 4.79994 49.2375 4.79994C50.5975 4.79994 51.6695 5.15194 52.4535 5.85594C53.2375 6.55994 53.6295 7.61594 53.6295 9.02394V17.5439H50.8935V9.74394C50.8615 8.76795 50.6535 8.06395 50.2695 7.63194C49.8855 7.18394 49.2855 6.95994 48.4695 6.95994C48.0055 6.95994 47.5895 7.04795 47.2215 7.22395C46.8535 7.38394 46.5415 7.61594 46.2855 7.91994C46.0295 8.20794 45.8295 8.55194 45.6855 8.95195C45.5415 9.35195 45.4695 9.77595 45.4695 10.2239V17.5439H42.7335V5.13594ZM54.6668 5.13594H57.6668L60.9068 14.3999H60.9548L64.0988 5.13594H66.9548L62.1308 18.2159C61.9068 18.7759 61.6828 19.3119 61.4588 19.8239C61.2508 20.3359 60.9868 20.7839 60.6668 21.1679C60.3628 21.5679 59.9788 21.8799 59.5148 22.1039C59.0508 22.3439 58.4588 22.4639 57.7388 22.4639C57.0988 22.4639 56.4668 22.4159 55.8428 22.3199V20.0159C56.0668 20.0479 56.2828 20.0799 56.4908 20.1119C56.6988 20.1599 56.9148 20.1839 57.1388 20.1839C57.4588 20.1839 57.7228 20.1439 57.9308 20.0639C58.1388 19.9839 58.3068 19.8639 58.4348 19.7039C58.5788 19.5599 58.6988 19.3839 58.7948 19.1759C58.8908 18.9679 58.9788 18.7279 59.0588 18.4559L59.3708 17.4959L54.6668 5.13594ZM66.013 14.3039H69.349V17.5439H66.013V14.3039ZM74.3486 11.8319C74.3486 12.4879 74.4606 13.0479 74.6846 13.5119C74.9086 13.9759 75.2206 14.3599 75.6206 14.6639C76.0206 14.9519 76.4766 15.1679 76.9886 15.3119C77.5166 15.4399 78.0846 15.5039 78.6926 15.5039C79.3486 15.5039 79.9086 15.4319 80.3726 15.2879C80.8366 15.1279 81.2126 14.9279 81.5006 14.6879C81.7886 14.4479 81.9966 14.1759 82.1246 13.8719C82.2526 13.5519 82.3166 13.2319 82.3166 12.9119C82.3166 12.2559 82.1646 11.7759 81.8606 11.4719C81.5726 11.1519 81.2526 10.9279 80.9006 10.7999C80.2926 10.5759 79.5806 10.3679 78.7646 10.1759C77.9646 9.96794 76.9726 9.70394 75.7886 9.38395C75.0526 9.19194 74.4366 8.94394 73.9406 8.63994C73.4606 8.31994 73.0766 7.96794 72.7886 7.58394C72.5006 7.19994 72.2926 6.79194 72.1646 6.35994C72.0526 5.92794 71.9966 5.48794 71.9966 5.03994C71.9966 4.17594 72.1726 3.43194 72.5246 2.80794C72.8926 2.16794 73.3726 1.63994 73.9646 1.22395C74.5566 0.807945 75.2286 0.503944 75.9806 0.311944C76.7326 0.103945 77.4926 -5.48363e-05 78.2606 -5.48363e-05C79.1566 -5.48363e-05 79.9966 0.119945 80.7806 0.359945C81.5806 0.583945 82.2766 0.927945 82.8686 1.39194C83.4766 1.85594 83.9566 2.43194 84.3086 3.11995C84.6606 3.79194 84.8366 4.57594 84.8366 5.47194H81.8366C81.7566 4.36794 81.3806 3.59194 80.7086 3.14394C80.0366 2.67994 79.1806 2.44795 78.1406 2.44795C77.7886 2.44795 77.4286 2.48795 77.0606 2.56795C76.6926 2.63195 76.3566 2.75195 76.0526 2.92794C75.7486 3.08794 75.4926 3.31194 75.2846 3.59994C75.0926 3.88794 74.9966 4.24794 74.9966 4.67994C74.9966 5.28794 75.1806 5.76794 75.5486 6.11995C75.9326 6.45595 76.4286 6.71194 77.0366 6.88794C77.1006 6.90394 77.3486 6.97594 77.7806 7.10394C78.2286 7.21594 78.7246 7.34394 79.2686 7.48794C79.8126 7.63194 80.3406 7.77594 80.8526 7.91994C81.3806 8.04795 81.7566 8.14394 81.9806 8.20794C82.5406 8.38394 83.0286 8.62394 83.4446 8.92794C83.8606 9.23195 84.2046 9.58395 84.4766 9.98394C84.7646 10.3679 84.9726 10.7839 85.1006 11.2319C85.2446 11.6799 85.3166 12.1279 85.3166 12.5759C85.3166 13.5359 85.1166 14.3599 84.7166 15.0479C84.3326 15.7199 83.8206 16.2719 83.1806 16.7039C82.5406 17.1359 81.8126 17.4479 80.9966 17.6399C80.1806 17.8479 79.3486 17.9519 78.5006 17.9519C77.5246 17.9519 76.6046 17.8319 75.7406 17.5919C74.8766 17.3519 74.1246 16.9839 73.4846 16.4879C72.8446 15.9919 72.3326 15.3599 71.9486 14.5919C71.5646 13.8079 71.3646 12.8879 71.3486 11.8319H74.3486ZM95.5991 10.2479C95.5671 9.81594 95.4711 9.39994 95.3111 8.99995C95.1671 8.59995 94.9591 8.25594 94.6871 7.96794C94.4311 7.66394 94.1111 7.42394 93.7271 7.24794C93.3591 7.05594 92.9431 6.95994 92.4791 6.95994C91.9991 6.95994 91.5591 7.04795 91.1591 7.22395C90.7751 7.38394 90.4391 7.61594 90.1511 7.91994C89.8791 8.20794 89.6551 8.55194 89.4791 8.95195C89.3191 9.35195 89.2311 9.78395 89.2151 10.2479H95.5991ZM89.2151 12.0479C89.2151 12.5279 89.2791 12.9919 89.4071 13.4399C89.5511 13.8879 89.7591 14.2799 90.0311 14.6159C90.3031 14.9519 90.6471 15.2239 91.0631 15.4319C91.4791 15.6239 91.9751 15.7199 92.5511 15.7199C93.3511 15.7199 93.9911 15.5519 94.4711 15.2159C94.9671 14.8639 95.3351 14.3439 95.5751 13.6559H98.1671C98.0231 14.3279 97.7751 14.9279 97.4231 15.4559C97.0711 15.9839 96.6471 16.4319 96.1511 16.7999C95.6551 17.1519 95.0951 17.4159 94.4711 17.5919C93.8631 17.7839 93.2231 17.8799 92.5511 17.8799C91.5751 17.8799 90.7111 17.7199 89.9591 17.3999C89.2071 17.0799 88.5671 16.6319 88.0391 16.0559C87.5271 15.4799 87.1351 14.7919 86.8631 13.9919C86.6071 13.1919 86.4791 12.3119 86.4791 11.3519C86.4791 10.4719 86.6151 9.63994 86.8871 8.85594C87.1751 8.05594 87.5751 7.35994 88.0871 6.76794C88.6151 6.15994 89.2471 5.67994 89.9831 5.32795C90.7191 4.97594 91.5511 4.79994 92.4791 4.79994C93.4551 4.79994 94.3271 5.00795 95.0951 5.42395C95.8791 5.82395 96.5271 6.35994 97.0391 7.03194C97.5511 7.70394 97.9191 8.47994 98.1431 9.35994C98.3831 10.2239 98.4471 11.1199 98.3351 12.0479H89.2151ZM99.9351 5.13594H102.503V7.53594H102.551C102.631 7.19994 102.783 6.87194 103.007 6.55194C103.247 6.23194 103.527 5.94394 103.847 5.68794C104.183 5.41594 104.551 5.19994 104.951 5.03994C105.351 4.87994 105.759 4.79994 106.175 4.79994C106.495 4.79994 106.711 4.80794 106.823 4.82394C106.951 4.83994 107.079 4.85594 107.207 4.87195V7.51195C107.015 7.47994 106.815 7.45594 106.607 7.43994C106.415 7.40794 106.223 7.39195 106.031 7.39195C105.567 7.39195 105.127 7.48795 104.711 7.67994C104.311 7.85595 103.959 8.12795 103.655 8.49595C103.351 8.84794 103.111 9.28794 102.935 9.81594C102.759 10.3439 102.671 10.9519 102.671 11.6399V17.5439H99.9351V5.13594ZM106.669 5.13594H109.645L112.789 14.6639H112.837L115.861 5.13594H118.693L114.253 17.5439H111.181L106.669 5.13594ZM119.93 0.407944H122.666V2.99995H119.93V0.407944ZM119.93 5.13594H122.666V17.5439H119.93V5.13594ZM133.543 9.28795C133.431 8.51994 133.119 7.94394 132.607 7.55995C132.111 7.15995 131.479 6.95994 130.711 6.95994C130.359 6.95994 129.983 7.02394 129.583 7.15194C129.183 7.26394 128.815 7.48794 128.479 7.82394C128.143 8.14394 127.863 8.59994 127.639 9.19194C127.415 9.76795 127.303 10.5279 127.303 11.4719C127.303 11.9839 127.359 12.4959 127.471 13.0079C127.599 13.5199 127.791 13.9759 128.047 14.3759C128.319 14.7759 128.663 15.1039 129.079 15.3599C129.495 15.5999 129.999 15.7199 130.591 15.7199C131.391 15.7199 132.047 15.4719 132.559 14.9759C133.087 14.4799 133.415 13.7839 133.543 12.8879H136.279C136.023 14.5039 135.407 15.7439 134.431 16.6079C133.471 17.4559 132.191 17.8799 130.591 17.8799C129.615 17.8799 128.751 17.7199 127.999 17.3999C127.263 17.0639 126.639 16.6159 126.127 16.0559C125.615 15.4799 125.223 14.7999 124.951 14.0159C124.695 13.2319 124.567 12.3839 124.567 11.4719C124.567 10.5439 124.695 9.67194 124.951 8.85594C125.207 8.03994 125.591 7.33594 126.103 6.74394C126.615 6.13594 127.247 5.66394 127.999 5.32795C128.767 4.97594 129.663 4.79994 130.687 4.79994C131.407 4.79994 132.087 4.89594 132.727 5.08794C133.383 5.26394 133.959 5.53594 134.455 5.90394C134.967 6.27194 135.383 6.73594 135.703 7.29594C136.023 7.85594 136.215 8.51994 136.279 9.28795H133.543ZM146.543 10.2479C146.511 9.81594 146.415 9.39994 146.255 8.99995C146.111 8.59995 145.903 8.25594 145.631 7.96794C145.375 7.66394 145.055 7.42394 144.671 7.24794C144.303 7.05594 143.887 6.95994 143.423 6.95994C142.943 6.95994 142.503 7.04795 142.103 7.22395C141.719 7.38394 141.383 7.61594 141.095 7.91994C140.823 8.20794 140.599 8.55194 140.423 8.95195C140.263 9.35195 140.175 9.78395 140.159 10.2479H146.543ZM140.159 12.0479C140.159 12.5279 140.223 12.9919 140.351 13.4399C140.495 13.8879 140.703 14.2799 140.975 14.6159C141.247 14.9519 141.591 15.2239 142.007 15.4319C142.423 15.6239 142.919 15.7199 143.495 15.7199C144.295 15.7199 144.935 15.5519 145.415 15.2159C145.911 14.8639 146.279 14.3439 146.519 13.6559H149.111C148.967 14.3279 148.719 14.9279 148.367 15.4559C148.015 15.9839 147.591 16.4319 147.095 16.7999C146.599 17.1519 146.039 17.4159 145.415 17.5919C144.807 17.7839 144.167 17.8799 143.495 17.8799C142.519 17.8799 141.655 17.7199 140.903 17.3999C140.151 17.0799 139.511 16.6319 138.983 16.0559C138.471 15.4799 138.079 14.7919 137.807 13.9919C137.551 13.1919 137.423 12.3119 137.423 11.3519C137.423 10.4719 137.559 9.63994 137.831 8.85594C138.119 8.05594 138.519 7.35994 139.031 6.76794C139.559 6.15994 140.191 5.67994 140.927 5.32795C141.663 4.97594 142.495 4.79994 143.423 4.79994C144.399 4.79994 145.271 5.00795 146.039 5.42395C146.823 5.82395 147.471 6.35994 147.983 7.03194C148.495 7.70394 148.863 8.47994 149.087 9.35994C149.327 10.2239 149.391 11.1199 149.279 12.0479H140.159ZM152.943 13.5599C153.023 14.3599 153.327 14.9199 153.855 15.2399C154.383 15.5599 155.015 15.7199 155.751 15.7199C156.007 15.7199 156.295 15.7039 156.615 15.6719C156.951 15.6239 157.263 15.5439 157.551 15.4319C157.839 15.3199 158.071 15.1599 158.247 14.9519C158.439 14.7279 158.527 14.4399 158.511 14.0879C158.495 13.7359 158.367 13.4479 158.127 13.2239C157.887 12.9999 157.575 12.8239 157.191 12.6959C156.823 12.5519 156.399 12.4319 155.919 12.3359C155.439 12.2399 154.951 12.1359 154.455 12.0239C153.943 11.9119 153.447 11.7759 152.967 11.6159C152.503 11.4559 152.079 11.2399 151.695 10.9679C151.327 10.6959 151.031 10.3519 150.807 9.93595C150.583 9.50395 150.471 8.97594 150.471 8.35194C150.471 7.67994 150.631 7.11995 150.951 6.67195C151.287 6.20794 151.703 5.83994 152.199 5.56795C152.711 5.27994 153.271 5.07994 153.879 4.96794C154.503 4.85594 155.095 4.79994 155.655 4.79994C156.295 4.79994 156.903 4.87194 157.479 5.01594C158.071 5.14395 158.599 5.35995 159.063 5.66394C159.543 5.96794 159.935 6.36794 160.239 6.86394C160.559 7.34394 160.759 7.92794 160.839 8.61595H157.983C157.855 7.95994 157.551 7.51994 157.071 7.29594C156.607 7.07194 156.071 6.95994 155.463 6.95994C155.271 6.95994 155.039 6.97594 154.767 7.00795C154.511 7.03995 154.263 7.10395 154.023 7.19994C153.799 7.27994 153.607 7.40794 153.447 7.58394C153.287 7.74394 153.207 7.95994 153.207 8.23195C153.207 8.56795 153.319 8.83995 153.543 9.04795C153.783 9.25594 154.087 9.43194 154.455 9.57594C154.839 9.70395 155.271 9.81595 155.751 9.91194C156.231 10.0079 156.727 10.1119 157.239 10.2239C157.735 10.3359 158.223 10.4719 158.703 10.6319C159.183 10.7919 159.607 11.0079 159.975 11.2799C160.359 11.5519 160.663 11.8959 160.887 12.3119C161.127 12.7279 161.247 13.2399 161.247 13.8479C161.247 14.5839 161.079 15.2079 160.743 15.7199C160.407 16.2319 159.967 16.6479 159.423 16.9679C158.895 17.2879 158.303 17.5199 157.647 17.6639C156.991 17.8079 156.343 17.8799 155.703 17.8799C154.919 17.8799 154.191 17.7919 153.519 17.6159C152.863 17.4399 152.287 17.1759 151.791 16.8239C151.311 16.4559 150.927 16.0079 150.639 15.4799C150.367 14.9359 150.223 14.2959 150.207 13.5599H152.943Z" fill="#FBFBFB"/>
</svg>
